<svg xmlns="http://www.w3.org/2000/svg" xmlns:xlink="http://www.w3.org/1999/xlink" width="500" zoomAndPan="magnify" viewBox="0 0 375 374.999991" height="500" preserveAspectRatio="xMidYMid meet" version="1.0"><defs><g/><clipPath id="486ed4d450"><path d="M 89 83 L 280.972656 83 L 280.972656 329.566406 L 89 329.566406 Z M 89 83 " clip-rule="nonzero"/></clipPath><clipPath id="9aef246b9c"><path d="M 0.0390625 0.742188 L 208 0.742188 L 208 321 L 0.0390625 321 Z M 0.0390625 0.742188 " clip-rule="nonzero"/></clipPath><clipPath id="819f92d51e"><rect x="0" width="286" y="0" height="335"/></clipPath></defs><g transform="matrix(1, 0, 0, 1, 35, 21)"><g clip-path="url(#819f92d51e)"><g clip-path="url(#486ed4d450)"><path fill="#8e5111" d="M 280.832031 198.453125 C 280.832031 271.152344 221.90625 330.078125 149.203125 330.078125 C 142.574219 330.078125 136.0625 329.585938 129.703125 328.628906 C 123.101562 324.382812 116.390625 319.132812 110.550781 312.773438 C 101.816406 302.375 94.777344 291.441406 89.277344 280.355469 C 106.078125 292.667969 126.789062 299.925781 149.203125 299.925781 C 205.257812 299.925781 250.691406 254.496094 250.691406 198.453125 C 250.691406 159.675781 228.941406 125.992188 196.972656 108.894531 C 204.050781 102.367188 209.550781 94.699219 213.417969 85.902344 C 213.703125 85.269531 213.96875 84.636719 214.222656 83.988281 C 254.011719 106.628906 280.832031 149.417969 280.832031 198.453125 Z M 280.832031 198.453125 " fill-opacity="1" fill-rule="nonzero"/></g><g clip-path="url(#9aef246b9c)"><path fill="#4caf50" d="M 100.851562 320.910156 C 57.328125 269.089844 52.886719 204.40625 70.960938 167.226562 C 86.164062 135.957031 122.765625 127.398438 158.648438 115.9375 C 218.019531 96.976562 213.660156 43.226562 194.054688 0.742188 C 162.828125 58.65625 34.984375 34.390625 5 147.765625 C -21.113281 246.511719 65.375 299.929688 65.375 299.929688 C -14.285156 202.0625 41.53125 87.683594 142.3125 71.003906 C 75.601562 100.839844 32.578125 145.347656 42.09375 219.695312 C 50.808594 287.777344 100.851562 320.910156 100.851562 320.910156 Z M 100.851562 320.910156 " fill-opacity="1" fill-rule="nonzero"/></g><g fill="#ffffff" fill-opacity="1"><g transform="translate(123.378687, 320.871937)"><g><path d="M 0.21875 0.03125 L 9.578125 -15.875 L 13.359375 -15.296875 L 17.46875 2.703125 L 13.359375 2.0625 L 12.671875 -1.046875 L 5.9375 -2.09375 L 4.34375 0.671875 Z M 7.390625 -4.953125 L 12.15625 -4.21875 L 10.734375 -10.796875 Z M 7.390625 -4.953125 "/></g></g></g><g fill="#ffffff" fill-opacity="1"><g transform="translate(149.499879, 324.087556)"><g><path d="M 10.046875 -0.328125 C 8.296875 -0.210938 6.722656 -0.488281 5.328125 -1.15625 C 3.929688 -1.820312 2.800781 -2.796875 1.9375 -4.078125 C 1.082031 -5.359375 0.59375 -6.875 0.46875 -8.625 C 0.351562 -10.363281 0.628906 -11.925781 1.296875 -13.3125 C 1.972656 -14.707031 2.957031 -15.828125 4.25 -16.671875 C 5.550781 -17.523438 7.070312 -18.015625 8.8125 -18.140625 C 10.1875 -18.222656 11.476562 -18.054688 12.6875 -17.640625 C 13.894531 -17.234375 14.9375 -16.613281 15.8125 -15.78125 C 16.6875 -14.945312 17.335938 -13.9375 17.765625 -12.75 L 13.59375 -12.46875 C 13.132812 -13.195312 12.507812 -13.742188 11.71875 -14.109375 C 10.9375 -14.472656 10.066406 -14.625 9.109375 -14.5625 C 8.117188 -14.488281 7.253906 -14.195312 6.515625 -13.6875 C 5.773438 -13.1875 5.210938 -12.523438 4.828125 -11.703125 C 4.453125 -10.878906 4.296875 -9.941406 4.359375 -8.890625 C 4.429688 -7.859375 4.707031 -6.957031 5.1875 -6.1875 C 5.664062 -5.425781 6.300781 -4.835938 7.09375 -4.421875 C 7.894531 -4.003906 8.816406 -3.832031 9.859375 -3.90625 C 11.109375 -3.988281 12.128906 -4.375 12.921875 -5.0625 C 13.710938 -5.75 14.195312 -6.625 14.375 -7.6875 L 8.828125 -7.328125 L 8.640625 -10.34375 L 18.28125 -10.984375 C 18.476562 -9.515625 18.425781 -8.148438 18.125 -6.890625 C 17.820312 -5.640625 17.304688 -4.535156 16.578125 -3.578125 C 15.847656 -2.628906 14.929688 -1.875 13.828125 -1.3125 C 12.722656 -0.75 11.460938 -0.421875 10.046875 -0.328125 Z M 10.046875 -0.328125 "/></g></g></g><g fill="#ffffff" fill-opacity="1"><g transform="translate(177.732223, 321.14082)"><g><path d="M 1.984375 -0.578125 L -2.828125 -17.046875 L 4.203125 -19.09375 C 5.453125 -19.457031 6.609375 -19.546875 7.671875 -19.359375 C 8.734375 -19.179688 9.632812 -18.738281 10.375 -18.03125 C 11.125 -17.332031 11.671875 -16.394531 12.015625 -15.21875 C 12.367188 -14.007812 12.398438 -12.890625 12.109375 -11.859375 C 11.816406 -10.835938 11.238281 -9.960938 10.375 -9.234375 L 15.46875 -4.515625 L 11.125 -3.25 L 6.6875 -7.515625 L 4.21875 -6.796875 L 5.71875 -1.671875 Z M 3.25 -9.9375 L 6.09375 -10.765625 C 7.03125 -11.035156 7.679688 -11.457031 8.046875 -12.03125 C 8.410156 -12.613281 8.476562 -13.304688 8.25 -14.109375 C 8.007812 -14.910156 7.582031 -15.453125 6.96875 -15.734375 C 6.351562 -16.023438 5.578125 -16.035156 4.640625 -15.765625 L 1.796875 -14.9375 Z M 3.25 -9.9375 "/></g></g></g><g fill="#ffffff" fill-opacity="1"><g transform="translate(202.165505, 313.229545)"><g><path d="M 9.109375 -4.625 C 7.546875 -3.757812 5.972656 -3.328125 4.390625 -3.328125 C 2.816406 -3.335938 1.363281 -3.738281 0.03125 -4.53125 C -1.289062 -5.320312 -2.375 -6.484375 -3.21875 -8.015625 C -4.0625 -9.546875 -4.460938 -11.085938 -4.421875 -12.640625 C -4.390625 -14.191406 -3.953125 -15.628906 -3.109375 -16.953125 C -2.265625 -18.285156 -1.0625 -19.382812 0.5 -20.25 C 2.070312 -21.113281 3.640625 -21.539062 5.203125 -21.53125 C 6.773438 -21.53125 8.226562 -21.132812 9.5625 -20.34375 C 10.894531 -19.550781 11.984375 -18.390625 12.828125 -16.859375 C 13.671875 -15.328125 14.070312 -13.785156 14.03125 -12.234375 C 13.988281 -10.679688 13.550781 -9.238281 12.71875 -7.90625 C 11.882812 -6.582031 10.679688 -5.488281 9.109375 -4.625 Z M 0.265625 -9.9375 C 0.765625 -9.03125 1.394531 -8.34375 2.15625 -7.875 C 2.914062 -7.40625 3.738281 -7.160156 4.625 -7.140625 C 5.519531 -7.128906 6.414062 -7.367188 7.3125 -7.859375 C 8.21875 -8.359375 8.898438 -8.988281 9.359375 -9.75 C 9.828125 -10.507812 10.0625 -11.332031 10.0625 -12.21875 C 10.070312 -13.113281 9.828125 -14.015625 9.328125 -14.921875 C 8.835938 -15.828125 8.210938 -16.519531 7.453125 -17 C 6.691406 -17.476562 5.863281 -17.722656 4.96875 -17.734375 C 4.082031 -17.753906 3.1875 -17.515625 2.28125 -17.015625 C 1.382812 -16.523438 0.703125 -15.898438 0.234375 -15.140625 C -0.222656 -14.378906 -0.453125 -13.546875 -0.453125 -12.640625 C -0.460938 -11.742188 -0.222656 -10.84375 0.265625 -9.9375 Z M 0.265625 -9.9375 "/></g></g></g><g fill="#ffffff" fill-opacity="1"><g transform="translate(226.816298, 298.381606)"><g><path d="M 4.640625 -4.0625 L -4.25 -14.234375 L -8.34375 -10.65625 L -10.734375 -13.40625 L 0.40625 -23.125 L 2.796875 -20.375 L -1.296875 -16.796875 L 7.59375 -6.625 Z M 4.640625 -4.0625 "/></g></g></g><g fill="#ffffff" fill-opacity="1"><g transform="translate(244.381875, 281.746198)"><g><path d="M 1.3125 -1.59375 L -11.90625 -12.53125 L -9.421875 -15.53125 L 3.796875 -4.59375 Z M 1.3125 -1.59375 "/></g></g></g><g fill="#ffffff" fill-opacity="1"><g transform="translate(254.508307, 269.194517)"><g><path d="M 5.171875 -8.46875 C 4.328125 -6.957031 3.242188 -5.804688 1.921875 -5.015625 C 0.597656 -4.234375 -0.828125 -3.835938 -2.359375 -3.828125 C -3.898438 -3.828125 -5.429688 -4.257812 -6.953125 -5.125 C -8.472656 -5.988281 -9.628906 -7.078125 -10.421875 -8.390625 C -11.222656 -9.710938 -11.625 -11.140625 -11.625 -12.671875 C -11.632812 -14.203125 -11.210938 -15.722656 -10.359375 -17.234375 C -9.640625 -18.503906 -8.742188 -19.53125 -7.671875 -20.3125 C -6.597656 -21.09375 -5.414062 -21.585938 -4.125 -21.796875 C -2.832031 -22.015625 -1.507812 -21.929688 -0.15625 -21.546875 L -2.140625 -18.046875 C -3.117188 -18.234375 -4.050781 -18.09375 -4.9375 -17.625 C -5.832031 -17.164062 -6.546875 -16.460938 -7.078125 -15.515625 C -7.554688 -14.671875 -7.789062 -13.8125 -7.78125 -12.9375 C -7.78125 -12.0625 -7.539062 -11.242188 -7.0625 -10.484375 C -6.582031 -9.734375 -5.894531 -9.101562 -5 -8.59375 C -4.101562 -8.082031 -3.207031 -7.820312 -2.3125 -7.8125 C -1.425781 -7.800781 -0.601562 -8.015625 0.15625 -8.453125 C 0.914062 -8.890625 1.53125 -9.523438 2 -10.359375 C 2.550781 -11.335938 2.785156 -12.335938 2.703125 -13.359375 C 2.617188 -14.390625 2.234375 -15.304688 1.546875 -16.109375 L 3.53125 -19.59375 C 4.601562 -18.675781 5.382812 -17.597656 5.875 -16.359375 C 6.363281 -15.117188 6.554688 -13.820312 6.453125 -12.46875 C 6.347656 -11.113281 5.921875 -9.78125 5.171875 -8.46875 Z M 5.171875 -8.46875 "/></g></g></g><g fill="#ffffff" fill-opacity="1"><g transform="translate(267.592207, 244.119899)"><g><path d="M 3.1875 -9.703125 C 2.6875 -7.992188 1.878906 -6.582031 0.765625 -5.46875 C -0.347656 -4.351562 -1.65625 -3.609375 -3.15625 -3.234375 C -4.664062 -2.859375 -6.257812 -2.914062 -7.9375 -3.40625 C -9.613281 -3.894531 -10.984375 -4.703125 -12.046875 -5.828125 C -13.117188 -6.953125 -13.828125 -8.285156 -14.171875 -9.828125 C -14.515625 -11.367188 -14.4375 -12.992188 -13.9375 -14.703125 C -13.4375 -16.421875 -12.628906 -17.832031 -11.515625 -18.9375 C -10.398438 -20.039062 -9.085938 -20.78125 -7.578125 -21.15625 C -6.066406 -21.539062 -4.472656 -21.488281 -2.796875 -21 C -1.117188 -20.507812 0.25 -19.695312 1.3125 -18.5625 C 2.375 -17.4375 3.078125 -16.109375 3.421875 -14.578125 C 3.765625 -13.046875 3.6875 -11.421875 3.1875 -9.703125 Z M -6.828125 -7.234375 C -5.835938 -6.941406 -4.90625 -6.894531 -4.03125 -7.09375 C -3.15625 -7.300781 -2.394531 -7.710938 -1.75 -8.328125 C -1.101562 -8.953125 -0.640625 -9.753906 -0.359375 -10.734375 C -0.0664062 -11.722656 -0.0234375 -12.648438 -0.234375 -13.515625 C -0.441406 -14.390625 -0.859375 -15.140625 -1.484375 -15.765625 C -2.117188 -16.398438 -2.929688 -16.863281 -3.921875 -17.15625 C -4.910156 -17.445312 -5.84375 -17.492188 -6.71875 -17.296875 C -7.59375 -17.109375 -8.347656 -16.703125 -8.984375 -16.078125 C -9.628906 -15.460938 -10.097656 -14.660156 -10.390625 -13.671875 C -10.671875 -12.691406 -10.707031 -11.765625 -10.5 -10.890625 C -10.300781 -10.023438 -9.882812 -9.269531 -9.25 -8.625 C -8.625 -7.988281 -7.816406 -7.523438 -6.828125 -7.234375 Z M -6.828125 -7.234375 "/></g></g></g><g fill="#ffffff" fill-opacity="1"><g transform="translate(274.300556, 216.517565)"><g/></g></g><g fill="#ffffff" fill-opacity="1"><g transform="translate(275.643782, 202.935853)"><g><path d="M 0.0625 -8.0625 C 0.113281 -6.625 -0.078125 -5.375 -0.515625 -4.3125 C -0.953125 -3.257812 -1.597656 -2.4375 -2.453125 -1.84375 C -3.304688 -1.25 -4.320312 -0.929688 -5.5 -0.890625 L -5.640625 -4.71875 C -4.816406 -4.738281 -4.1875 -5.035156 -3.75 -5.609375 C -3.320312 -6.191406 -3.125 -6.957031 -3.15625 -7.90625 C -3.1875 -8.726562 -3.367188 -9.367188 -3.703125 -9.828125 C -4.035156 -10.296875 -4.488281 -10.519531 -5.0625 -10.5 C -5.664062 -10.476562 -6.144531 -10.175781 -6.5 -9.59375 C -6.851562 -9.007812 -7.140625 -8.109375 -7.359375 -6.890625 C -7.710938 -4.859375 -8.304688 -3.34375 -9.140625 -2.34375 C -9.972656 -1.351562 -11.078125 -0.832031 -12.453125 -0.78125 C -14.023438 -0.726562 -15.285156 -1.253906 -16.234375 -2.359375 C -17.179688 -3.472656 -17.6875 -5.019531 -17.75 -7 C -17.800781 -8.351562 -17.613281 -9.535156 -17.1875 -10.546875 C -16.757812 -11.566406 -16.128906 -12.363281 -15.296875 -12.9375 C -14.472656 -13.507812 -13.488281 -13.816406 -12.34375 -13.859375 L -12.21875 -10.125 C -12.976562 -10.101562 -13.566406 -9.828125 -13.984375 -9.296875 C -14.398438 -8.773438 -14.59375 -8.066406 -14.5625 -7.171875 C -14.539062 -6.359375 -14.359375 -5.71875 -14.015625 -5.25 C -13.679688 -4.789062 -13.226562 -4.570312 -12.65625 -4.59375 C -12.144531 -4.601562 -11.71875 -4.875 -11.375 -5.40625 C -11.039062 -5.945312 -10.738281 -6.878906 -10.46875 -8.203125 C -10.039062 -10.359375 -9.414062 -11.921875 -8.59375 -12.890625 C -7.78125 -13.859375 -6.695312 -14.367188 -5.34375 -14.421875 C -3.726562 -14.484375 -2.441406 -13.945312 -1.484375 -12.8125 C -0.523438 -11.6875 -0.0078125 -10.101562 0.0625 -8.0625 Z M 0.0625 -8.0625 "/></g></g></g><g fill="#ffffff" fill-opacity="1"><g transform="translate(274.238805, 178.785805)"><g><path d="M -0.53125 -2 L -17.109375 2.390625 L -17.953125 -0.8125 L -10.921875 -8.984375 L -21.0625 -12.578125 L -21.90625 -15.765625 L -5.328125 -20.15625 L -4.34375 -16.40625 L -14.328125 -13.765625 L -7.359375 -11.296875 L -6.671875 -8.6875 L -11.515625 -3.09375 L -1.515625 -5.734375 Z M -0.53125 -2 "/></g></g></g><g fill="#ffffff" fill-opacity="1"><g transform="translate(264.982443, 148.793332)"><g><path d="M -0.109375 -0.1875 L -18.4375 1.890625 L -20.25 -1.484375 L -8.328125 -15.578125 L -6.375 -11.921875 L -8.453125 -9.5 L -5.234375 -3.484375 L -2.078125 -3.875 Z M -8.40625 -2.921875 L -10.671875 -7.1875 L -15.078125 -2.078125 Z M -8.40625 -2.921875 "/></g></g></g><g fill="#ffffff" fill-opacity="1"><g transform="translate(251.839609, 126.113564)"><g><path d="M -1.328125 -1.578125 L -14.453125 9.46875 L -19.171875 3.859375 C -20.003906 2.859375 -20.550781 1.832031 -20.8125 0.78125 C -21.082031 -0.257812 -21.046875 -1.257812 -20.703125 -2.21875 C -20.359375 -3.1875 -19.71875 -4.066406 -18.78125 -4.859375 C -17.8125 -5.660156 -16.796875 -6.132812 -15.734375 -6.28125 C -14.679688 -6.425781 -13.648438 -6.253906 -12.640625 -5.765625 L -10.375 -12.328125 L -7.46875 -8.875 L -9.578125 -3.09375 L -7.921875 -1.125 L -3.828125 -4.5625 Z M -10.390625 1.03125 L -12.3125 -1.25 C -12.9375 -1.988281 -13.585938 -2.40625 -14.265625 -2.5 C -14.941406 -2.601562 -15.597656 -2.382812 -16.234375 -1.84375 C -16.867188 -1.3125 -17.191406 -0.703125 -17.203125 -0.015625 C -17.222656 0.660156 -16.921875 1.367188 -16.296875 2.109375 L -14.375 4.390625 Z M -10.390625 1.03125 "/></g></g></g><g fill="#ffffff" fill-opacity="1"><g transform="translate(234.744094, 107.164166)"><g><path d="M -4.84375 -3.828125 L -13.234375 6.765625 L -8.96875 10.140625 L -11.234375 13 L -22.8125 3.8125 L -20.546875 0.953125 L -16.296875 4.328125 L -7.90625 -6.265625 Z M -4.84375 -3.828125 "/></g></g></g></g></g></svg>