<svg xmlns="http://www.w3.org/2000/svg" xmlns:xlink="http://www.w3.org/1999/xlink" width="500" zoomAndPan="magnify" viewBox="0 0 375 374.999991" height="500" preserveAspectRatio="xMidYMid meet" version="1.0"><defs><g/><clipPath id="ec7c4d9ddb"><rect x="0" width="307" y="0" height="141"/></clipPath><clipPath id="492572dddb"><path d="M 259 159 L 304.28125 159 L 304.28125 216.453125 L 259 216.453125 Z M 259 159 " clip-rule="nonzero"/></clipPath><clipPath id="d3485c2ba4"><path d="M 239 140.703125 L 288 140.703125 L 288 215 L 239 215 Z M 239 140.703125 " clip-rule="nonzero"/></clipPath></defs><g fill="#ffffff" fill-opacity="1"><g transform="translate(192.466721, 242.524818)"><g><path d="M 4.421875 0 L 4.421875 -9.671875 L 0.53125 -9.671875 L 0.53125 -12.28125 L 11.109375 -12.28125 L 11.109375 -9.671875 L 7.21875 -9.671875 L 7.21875 0 Z M 4.421875 0 "/></g></g></g><g fill="#ffffff" fill-opacity="1"><g transform="translate(208.925762, 242.524818)"><g><path d="M 1.46875 0 L 1.46875 -12.28125 L 4.265625 -12.28125 L 4.265625 0 Z M 1.46875 0 "/></g></g></g><g fill="#ffffff" fill-opacity="1"><g transform="translate(219.490386, 242.524818)"><g><path d="M 7.109375 0.25 C 5.867188 0.25 4.769531 -0.0195312 3.8125 -0.5625 C 2.851562 -1.113281 2.101562 -1.867188 1.5625 -2.828125 C 1.019531 -3.785156 0.75 -4.890625 0.75 -6.140625 C 0.75 -7.390625 1.019531 -8.492188 1.5625 -9.453125 C 2.101562 -10.410156 2.847656 -11.160156 3.796875 -11.703125 C 4.753906 -12.253906 5.851562 -12.53125 7.09375 -12.53125 C 8.132812 -12.53125 9.085938 -12.328125 9.953125 -11.921875 C 10.816406 -11.523438 11.539062 -10.960938 12.125 -10.234375 C 12.71875 -9.515625 13.132812 -8.664062 13.375 -7.6875 L 10.5 -7.6875 C 10.257812 -8.363281 9.84375 -8.894531 9.25 -9.28125 C 8.65625 -9.675781 7.960938 -9.875 7.171875 -9.875 C 6.484375 -9.875 5.867188 -9.71875 5.328125 -9.40625 C 4.785156 -9.09375 4.359375 -8.65625 4.046875 -8.09375 C 3.742188 -7.53125 3.59375 -6.878906 3.59375 -6.140625 C 3.59375 -5.398438 3.742188 -4.75 4.046875 -4.1875 C 4.359375 -3.625 4.78125 -3.1875 5.3125 -2.875 C 5.851562 -2.5625 6.46875 -2.40625 7.15625 -2.40625 C 7.96875 -2.40625 8.675781 -2.613281 9.28125 -3.03125 C 9.882812 -3.445312 10.316406 -4.003906 10.578125 -4.703125 L 13.453125 -4.703125 C 13.253906 -3.710938 12.859375 -2.84375 12.265625 -2.09375 C 11.671875 -1.351562 10.929688 -0.773438 10.046875 -0.359375 C 9.160156 0.046875 8.179688 0.25 7.109375 0.25 Z M 7.109375 0.25 "/></g></g></g><g fill="#ffffff" fill-opacity="1"><g transform="translate(238.475606, 242.524818)"><g><path d="M 7.296875 0.25 C 6.023438 0.25 4.894531 -0.0195312 3.90625 -0.5625 C 2.914062 -1.113281 2.140625 -1.867188 1.578125 -2.828125 C 1.023438 -3.785156 0.75 -4.890625 0.75 -6.140625 C 0.75 -7.390625 1.023438 -8.492188 1.578125 -9.453125 C 2.140625 -10.410156 2.914062 -11.160156 3.90625 -11.703125 C 4.894531 -12.253906 6.023438 -12.53125 7.296875 -12.53125 C 8.585938 -12.53125 9.722656 -12.253906 10.703125 -11.703125 C 11.679688 -11.160156 12.453125 -10.410156 13.015625 -9.453125 C 13.578125 -8.492188 13.859375 -7.390625 13.859375 -6.140625 C 13.859375 -4.890625 13.578125 -3.785156 13.015625 -2.828125 C 12.453125 -1.867188 11.679688 -1.113281 10.703125 -0.5625 C 9.722656 -0.0195312 8.585938 0.25 7.296875 0.25 Z M 3.59375 -6.140625 C 3.59375 -5.398438 3.75 -4.75 4.0625 -4.1875 C 4.382812 -3.625 4.820312 -3.1875 5.375 -2.875 C 5.9375 -2.5625 6.578125 -2.40625 7.296875 -2.40625 C 8.035156 -2.40625 8.679688 -2.5625 9.234375 -2.875 C 9.796875 -3.1875 10.226562 -3.625 10.53125 -4.1875 C 10.84375 -4.75 11 -5.398438 11 -6.140625 C 11 -6.878906 10.84375 -7.53125 10.53125 -8.09375 C 10.226562 -8.65625 9.796875 -9.09375 9.234375 -9.40625 C 8.679688 -9.71875 8.035156 -9.875 7.296875 -9.875 C 6.578125 -9.875 5.9375 -9.71875 5.375 -9.40625 C 4.820312 -9.09375 4.382812 -8.65625 4.0625 -8.09375 C 3.75 -7.53125 3.59375 -6.878906 3.59375 -6.140625 Z M 3.59375 -6.140625 "/></g></g></g><g fill="#ffffff" fill-opacity="1"><g transform="translate(257.916942, 242.524818)"><g/></g></g><g fill="#ffffff" fill-opacity="1"><g transform="translate(266.867629, 242.524818)"><g><path d="M 5.75 0.25 C 4.726562 0.25 3.84375 0.0820312 3.09375 -0.25 C 2.351562 -0.59375 1.78125 -1.078125 1.375 -1.703125 C 0.96875 -2.335938 0.765625 -3.070312 0.765625 -3.90625 L 3.515625 -3.90625 C 3.515625 -3.320312 3.710938 -2.863281 4.109375 -2.53125 C 4.515625 -2.207031 5.054688 -2.046875 5.734375 -2.046875 C 6.316406 -2.046875 6.78125 -2.160156 7.125 -2.390625 C 7.46875 -2.617188 7.640625 -2.9375 7.640625 -3.34375 C 7.640625 -3.78125 7.429688 -4.132812 7.015625 -4.40625 C 6.609375 -4.675781 5.972656 -4.90625 5.109375 -5.09375 C 3.671875 -5.394531 2.601562 -5.851562 1.90625 -6.46875 C 1.21875 -7.09375 0.875 -7.898438 0.875 -8.890625 C 0.875 -10.015625 1.28125 -10.898438 2.09375 -11.546875 C 2.914062 -12.203125 4.035156 -12.53125 5.453125 -12.53125 C 6.421875 -12.53125 7.257812 -12.363281 7.96875 -12.03125 C 8.6875 -11.695312 9.242188 -11.226562 9.640625 -10.625 C 10.035156 -10.019531 10.234375 -9.300781 10.234375 -8.46875 L 7.546875 -8.46875 C 7.546875 -9.019531 7.363281 -9.453125 7 -9.765625 C 6.632812 -10.085938 6.128906 -10.25 5.484375 -10.25 C 4.898438 -10.25 4.4375 -10.132812 4.09375 -9.90625 C 3.757812 -9.675781 3.59375 -9.359375 3.59375 -8.953125 C 3.59375 -8.578125 3.78125 -8.257812 4.15625 -8 C 4.53125 -7.738281 5.1875 -7.5 6.125 -7.28125 C 7.65625 -6.914062 8.757812 -6.425781 9.4375 -5.8125 C 10.113281 -5.207031 10.453125 -4.421875 10.453125 -3.453125 C 10.453125 -2.296875 10.035156 -1.390625 9.203125 -0.734375 C 8.367188 -0.078125 7.21875 0.25 5.75 0.25 Z M 5.75 0.25 "/></g></g></g><g fill="#ffffff" fill-opacity="1"><g transform="translate(282.940729, 242.524818)"><g><path d="M 1.46875 0 L 1.46875 -12.28125 L 3.84375 -12.28125 L 8.21875 -5.90625 L 12.5625 -12.28125 L 14.921875 -12.28125 L 14.921875 0 L 12.140625 0 L 12.140625 -7.390625 L 9.15625 -3.03125 L 7.234375 -3.03125 L 4.25 -7.40625 L 4.25 0 Z M 1.46875 0 "/></g></g></g><g fill="#ffffff" fill-opacity="1"><g transform="translate(304.153896, 242.524818)"><g><path d="M 0.15625 0 L 5.03125 -12.28125 L 7.765625 -12.28125 L 12.65625 0 L 9.671875 0 L 8.84375 -2.125 L 3.96875 -2.125 L 3.140625 0 Z M 4.6875 -4.3125 L 8.140625 -4.3125 L 6.40625 -8.8125 Z M 4.6875 -4.3125 "/></g></g></g><g fill="#ffffff" fill-opacity="1"><g transform="translate(321.788314, 242.524818)"><g><path d="M 1.46875 0 L 1.46875 -12.28125 L 6.71875 -12.28125 C 7.65625 -12.28125 8.46875 -12.109375 9.15625 -11.765625 C 9.84375 -11.429688 10.375 -10.945312 10.75 -10.3125 C 11.125 -9.6875 11.3125 -8.929688 11.3125 -8.046875 C 11.3125 -7.148438 11.109375 -6.375 10.703125 -5.71875 C 10.296875 -5.070312 9.722656 -4.585938 8.984375 -4.265625 L 11.53125 0 L 8.296875 0 L 6.109375 -3.828125 L 4.265625 -3.828125 L 4.265625 0 Z M 4.234375 -6.171875 L 6.359375 -6.171875 C 7.046875 -6.171875 7.570312 -6.332031 7.9375 -6.65625 C 8.3125 -6.976562 8.5 -7.4375 8.5 -8.03125 C 8.5 -8.632812 8.3125 -9.09375 7.9375 -9.40625 C 7.570312 -9.726562 7.046875 -9.890625 6.359375 -9.890625 L 4.234375 -9.890625 Z M 4.234375 -6.171875 "/></g></g></g><g fill="#ffffff" fill-opacity="1"><g transform="translate(338.966616, 242.524818)"><g><path d="M 4.421875 0 L 4.421875 -9.671875 L 0.53125 -9.671875 L 0.53125 -12.28125 L 11.109375 -12.28125 L 11.109375 -9.671875 L 7.21875 -9.671875 L 7.21875 0 Z M 4.421875 0 "/></g></g></g><g transform="matrix(1, 0, 0, 1, 29, 116)"><g clip-path="url(#ec7c4d9ddb)"><g fill="#81a969" fill-opacity="0.4"><g transform="translate(5.373051, 100.426252)"><g><path d="M 53.546875 -92.234375 L 90.78125 0 L 68.203125 0 L 61.375 -18.453125 L 26.265625 -18.453125 L 19.453125 0 L -3.125 0 L 34.09375 -92.234375 Z M 54.21875 -36.890625 L 43.9375 -63.71875 L 43.71875 -63.71875 L 33.421875 -36.890625 Z M 54.21875 -36.890625 "/></g></g></g><g fill="#81a969" fill-opacity="0.4"><g transform="translate(87.094273, 100.426252)"><g><path d="M 4.140625 14.09375 L 20.34375 6.15625 C 23.320312 11.070312 28.503906 13.53125 35.890625 13.53125 C 39.316406 13.53125 42.5 12.429688 45.4375 10.234375 C 48.382812 8.035156 49.859375 4.660156 49.859375 0.109375 L 49.859375 -4.140625 C 46.359375 -0.265625 40.097656 1.671875 31.078125 1.671875 C 22.804688 1.671875 15.988281 -1.25 10.625 -7.09375 C 5.257812 -12.945312 2.578125 -20.117188 2.578125 -28.609375 C 2.578125 -37.109375 5.257812 -44.300781 10.625 -50.1875 C 15.988281 -56.082031 22.804688 -59.03125 31.078125 -59.03125 C 38.453125 -59.03125 44.601562 -56.753906 49.53125 -52.203125 L 49.859375 -52.203125 L 49.859375 -57.359375 L 69.65625 -57.359375 L 69.65625 1.5625 C 69.65625 10.882812 66.5625 18.078125 60.375 23.140625 C 54.1875 28.210938 46.023438 30.75 35.890625 30.75 C 19.492188 30.75 8.910156 25.195312 4.140625 14.09375 Z M 27.4375 -38.34375 C 24.875 -35.8125 23.59375 -32.566406 23.59375 -28.609375 C 23.59375 -24.660156 24.820312 -21.4375 27.28125 -18.9375 C 29.738281 -16.445312 32.976562 -15.203125 37 -15.203125 C 40.875 -15.203125 44.0625 -16.46875 46.5625 -19 C 49.0625 -21.539062 50.3125 -24.75 50.3125 -28.625 C 50.3125 -32.570312 49.023438 -35.8125 46.453125 -38.34375 C 43.878906 -40.875 40.726562 -42.140625 37 -42.140625 C 33.195312 -42.140625 30.007812 -40.875 27.4375 -38.34375 Z M 27.4375 -38.34375 "/></g></g></g><g fill="#81a969" fill-opacity="0.4"><g transform="translate(157.524223, 100.426252)"><g><path d="M 6.703125 0 L 6.703125 -57.359375 L 26.5 -57.359375 L 26.5 -49.078125 L 26.71875 -49.078125 C 26.863281 -49.378906 27.101562 -49.753906 27.4375 -50.203125 C 27.78125 -50.648438 28.507812 -51.429688 29.625 -52.546875 C 30.738281 -53.660156 31.929688 -54.664062 33.203125 -55.5625 C 34.472656 -56.457031 36.113281 -57.257812 38.125 -57.96875 C 40.132812 -58.675781 42.179688 -59.03125 44.265625 -59.03125 C 46.429688 -59.03125 48.554688 -58.726562 50.640625 -58.125 C 52.734375 -57.53125 54.265625 -56.9375 55.234375 -56.34375 L 56.796875 -55.453125 L 48.515625 -38.6875 C 46.054688 -40.769531 42.628906 -41.8125 38.234375 -41.8125 C 35.847656 -41.8125 33.796875 -41.289062 32.078125 -40.25 C 30.367188 -39.207031 29.160156 -37.9375 28.453125 -36.4375 C 27.742188 -34.945312 27.238281 -33.679688 26.9375 -32.640625 C 26.644531 -31.597656 26.5 -30.78125 26.5 -30.1875 L 26.5 0 Z M 6.703125 0 "/></g></g></g><g fill="#81a969" fill-opacity="0.4"><g transform="translate(207.289276, 100.426252)"><g/></g></g><g fill="#81a969" fill-opacity="0.4"><g transform="translate(231.883363, 100.426252)"><g/></g></g><g fill="#81a969" fill-opacity="0.4"><g transform="translate(256.477449, 100.426252)"><g/></g></g><g fill="#81a969" fill-opacity="0.4"><g transform="translate(281.071535, 100.426252)"><g/></g></g><g fill="#ffffff" fill-opacity="1"><g transform="translate(5.373051, 100.426252)"><g><path d="M 53.546875 -92.234375 L 90.78125 0 L 68.203125 0 L 61.375 -18.453125 L 26.265625 -18.453125 L 19.453125 0 L -3.125 0 L 34.09375 -92.234375 Z M 54.21875 -36.890625 L 43.9375 -63.71875 L 43.71875 -63.71875 L 33.421875 -36.890625 Z M 54.21875 -36.890625 "/></g></g></g><g fill="#ffffff" fill-opacity="1"><g transform="translate(87.094273, 100.426252)"><g><path d="M 4.140625 14.09375 L 20.34375 6.15625 C 23.320312 11.070312 28.503906 13.53125 35.890625 13.53125 C 39.316406 13.53125 42.5 12.429688 45.4375 10.234375 C 48.382812 8.035156 49.859375 4.660156 49.859375 0.109375 L 49.859375 -4.140625 C 46.359375 -0.265625 40.097656 1.671875 31.078125 1.671875 C 22.804688 1.671875 15.988281 -1.25 10.625 -7.09375 C 5.257812 -12.945312 2.578125 -20.117188 2.578125 -28.609375 C 2.578125 -37.109375 5.257812 -44.300781 10.625 -50.1875 C 15.988281 -56.082031 22.804688 -59.03125 31.078125 -59.03125 C 38.453125 -59.03125 44.601562 -56.753906 49.53125 -52.203125 L 49.859375 -52.203125 L 49.859375 -57.359375 L 69.65625 -57.359375 L 69.65625 1.5625 C 69.65625 10.882812 66.5625 18.078125 60.375 23.140625 C 54.1875 28.210938 46.023438 30.75 35.890625 30.75 C 19.492188 30.75 8.910156 25.195312 4.140625 14.09375 Z M 27.4375 -38.34375 C 24.875 -35.8125 23.59375 -32.566406 23.59375 -28.609375 C 23.59375 -24.660156 24.820312 -21.4375 27.28125 -18.9375 C 29.738281 -16.445312 32.976562 -15.203125 37 -15.203125 C 40.875 -15.203125 44.0625 -16.46875 46.5625 -19 C 49.0625 -21.539062 50.3125 -24.75 50.3125 -28.625 C 50.3125 -32.570312 49.023438 -35.8125 46.453125 -38.34375 C 43.878906 -40.875 40.726562 -42.140625 37 -42.140625 C 33.195312 -42.140625 30.007812 -40.875 27.4375 -38.34375 Z M 27.4375 -38.34375 "/></g></g></g><g fill="#ffffff" fill-opacity="1"><g transform="translate(157.524223, 100.426252)"><g><path d="M 6.703125 0 L 6.703125 -57.359375 L 26.5 -57.359375 L 26.5 -49.078125 L 26.71875 -49.078125 C 26.863281 -49.378906 27.101562 -49.753906 27.4375 -50.203125 C 27.78125 -50.648438 28.507812 -51.429688 29.625 -52.546875 C 30.738281 -53.660156 31.929688 -54.664062 33.203125 -55.5625 C 34.472656 -56.457031 36.113281 -57.257812 38.125 -57.96875 C 40.132812 -58.675781 42.179688 -59.03125 44.265625 -59.03125 C 46.429688 -59.03125 48.554688 -58.726562 50.640625 -58.125 C 52.734375 -57.53125 54.265625 -56.9375 55.234375 -56.34375 L 56.796875 -55.453125 L 48.515625 -38.6875 C 46.054688 -40.769531 42.628906 -41.8125 38.234375 -41.8125 C 35.847656 -41.8125 33.796875 -41.289062 32.078125 -40.25 C 30.367188 -39.207031 29.160156 -37.9375 28.453125 -36.4375 C 27.742188 -34.945312 27.238281 -33.679688 26.9375 -32.640625 C 26.644531 -31.597656 26.5 -30.78125 26.5 -30.1875 L 26.5 0 Z M 6.703125 0 "/></g></g></g><g fill="#ffffff" fill-opacity="1"><g transform="translate(207.289276, 100.426252)"><g/></g></g><g fill="#ffffff" fill-opacity="1"><g transform="translate(231.883363, 100.426252)"><g/></g></g><g fill="#ffffff" fill-opacity="1"><g transform="translate(256.477449, 100.426252)"><g/></g></g><g fill="#ffffff" fill-opacity="1"><g transform="translate(281.071535, 100.426252)"><g/></g></g></g></g><g clip-path="url(#492572dddb)"><path fill="#ffffff" d="M 304.054688 186.214844 C 304.054688 202.949219 290.488281 216.511719 273.753906 216.511719 C 272.226562 216.511719 270.726562 216.398438 269.265625 216.179688 C 267.746094 215.203125 266.199219 213.992188 264.855469 212.53125 C 262.84375 210.136719 261.226562 207.621094 259.957031 205.066406 C 263.824219 207.902344 268.59375 209.574219 273.753906 209.574219 C 286.65625 209.574219 297.113281 199.113281 297.113281 186.214844 C 297.113281 177.289062 292.109375 169.535156 284.75 165.597656 C 286.378906 164.09375 287.644531 162.332031 288.535156 160.304688 C 288.601562 160.160156 288.660156 160.015625 288.71875 159.867188 C 297.878906 165.078125 304.054688 174.925781 304.054688 186.214844 Z M 304.054688 186.214844 " fill-opacity="1" fill-rule="nonzero"/></g><g clip-path="url(#d3485c2ba4)"><path fill="#ffffff" d="M 262.625 214.402344 C 252.605469 202.472656 251.582031 187.582031 255.742188 179.027344 C 259.242188 171.828125 267.667969 169.859375 275.929688 167.21875 C 289.59375 162.855469 288.589844 150.480469 284.078125 140.703125 C 276.890625 154.035156 247.460938 148.449219 240.558594 174.546875 C 234.546875 197.277344 254.457031 209.574219 254.457031 209.574219 C 236.121094 187.042969 248.96875 160.714844 272.167969 156.875 C 256.8125 163.746094 246.90625 173.988281 249.097656 191.105469 C 251.105469 206.777344 262.625 214.402344 262.625 214.402344 Z M 262.625 214.402344 " fill-opacity="1" fill-rule="nonzero"/></g></svg>